<?xml version="1.0" encoding="utf-8"?>
<!-- Generator: Adobe Illustrator 19.0.0, SVG Export Plug-In . SVG Version: 6.00 Build 0)  -->
<svg version="1.1" id="Layer_1" xmlns="http://www.w3.org/2000/svg" xmlns:xlink="http://www.w3.org/1999/xlink" x="0px" y="0px"
	 viewBox="0 0 1000 1000" style="enable-background:new 0 0 1000 1000;" xml:space="preserve">
<style type="text/css">
	.st0{fill-rule:evenodd;clip-rule:evenodd;fill:#F4D8CA;}
	.st1{fill:#286F38;}
	.st2{fill:#C12F27;}
	.st3{fill:#FCB316;}
</style>
<g id="XMLID_1_">
	<g id="Ellipse_1_copy_7">
		<g id="XMLID_38_">
			<circle id="XMLID_39_" class="st0" cx="500.5" cy="500.5" r="363.5"/>
		</g>
	</g>
	<g id="Shape_2_copy_2">
		<g id="XMLID_80_">
			<path id="XMLID_81_" class="st1" d="M674.9,353.6c66.3-36.5,55.2-82.7,55.2-82.7c-52.9-4.6-79.2,47.5-82.3,54.1
				c3.9-45.9-32.6-68.2-32.6-68.2c-0.8,107.5-85.2,214.3-85.2,214.3c107.3-78.6,212.2-86.2,212.2-86.2
				C730.2,348.8,674.9,353.6,674.9,353.6z M355.4,325c-3.1-6.6-29.4-58.7-82.3-54.1c0,0-11.1,46.2,55.2,82.7c0,0-55.3-4.8-67.2,31.3
				c0,0,104.9,7.6,212.2,86.2c0,0-84.5-106.8-85.2-214.3C388,256.8,351.5,279.2,355.4,325z M615.2,740c0,0,36.5-22.3,32.6-68.2
				c3.1,6.6,29.4,58.7,82.3,54.1c0,0,11.1-46.2-55.2-82.7c0,0,55.3,4.8,67.2-31.3c0,0-104.9-7.6-212.2-86.2
				C529.9,525.8,614.4,632.6,615.2,740z M328.3,643.3c-66.3,36.5-55.2,82.7-55.2,82.7c52.9,4.6,79.2-47.5,82.3-54.1
				C351.5,717.7,388,740,388,740c0.8-107.5,85.2-214.3,85.2-214.3C365.9,604.3,261,612,261,612C273,648.1,328.3,643.3,328.3,643.3z"
				/>
		</g>
	</g>
	<g id="Ellipse_1_copy">
		<g id="XMLID_113_">
			<path id="XMLID_114_" class="st2" d="M717.4,381.8c-65.1,0-119,29.6-156.6,59.1c-0.1,0.1-0.2,0.2-0.3,0.2c0,0-0.1,0.1-0.1,0.1
				c0,0-1.7,1.3,0.1-0.1c29.3-37.1,58.7-90.8,58.7-157.5c0-64.7-52.4-117.1-117.1-117.1S385,218.9,385,283.6
				c0,65.3,29.8,119.3,59.3,156.9c0.7,0.6,1.4,1.1,2.1,1.7l-2-1.6c0,0-0.1-0.1-0.1-0.1c-37.1-29.3-90.8-58.7-157.5-58.7
				c-64.7,0-117.1,52.4-117.1,117.1s52.4,117.1,117.1,117.1c65,0,118.8-29.5,156.3-58.9l-1.3,1.9c-28.7,37-56.8,89.9-56.8,155.2
				c0,64.7,52.4,117.1,117.1,117.1S619.2,779,619.2,714.3c0-65-29.5-118.8-58.9-156.3l-2.3-2.1c37.1,29.8,91.6,60.2,159.4,60.2
				c64.7,0,117.1-52.4,117.1-117.1S782.1,381.8,717.4,381.8z M409.1,284.1c0-51.1,41.4-92.4,92.4-92.4s92.4,41.4,92.4,92.4
				c0,91.9-92.4,182.8-92.4,182.8S409.1,380.2,409.1,284.1z M287.3,590.9c-51.1,0-92.4-41.4-92.4-92.4s41.4-92.4,92.4-92.4
				c91.9,0,182.8,92.4,182.8,92.4S383.3,590.9,287.3,590.9z M594,712.7c0,51.1-41.4,92.4-92.4,92.4s-92.4-41.4-92.4-92.4
				c0-91.9,92.4-182.8,92.4-182.8S594,616.7,594,712.7z M715.9,590.9c-91.9,0-182.8-92.4-182.8-92.4S619.8,406,715.9,406
				c51.1,0,92.4,41.4,92.4,92.4S766.9,590.9,715.9,590.9z"/>
		</g>
	</g>
	<g id="Shape_2_copy_6">
		<g id="XMLID_77_">
			<path id="XMLID_78_" class="st2" d="M584.3,509.5c67.8,2.3,119-11.1,119-11.1c-40.9-10.4-83.4-12-118.8-10.4l-4,0.8
				c68.1-15.2,115.9-42.3,115.9-42.3c-45.8,0.7-90.7,11.8-125.9,23.6c0,0,8.5,27.5-0.9,58.4c68.8,22.4,126.5,22.6,126.5,22.6
				c-36.7-20.5-77.3-32.9-111.8-40.4L584.3,509.5z M472.7,430.4c0,0,27.6-8.5,58.7,0.9c22.5-68.7,22.7-126.3,22.7-126.3
				c-20.6,36.7-33,77.1-40.6,111.6l-1.2,0.1c2.3-67.7-11.1-118.8-11.1-118.8c-10.5,40.8-12.1,83.3-10.4,118.6l0.8,4
				c-15.3-68-42.4-115.7-42.4-115.7C449.7,350.4,460.9,395.3,472.7,430.4z M307,447c36.7,20.6,77.1,33,111.6,40.6l0.1,1.2
				c-67.7-2.3-118.8,11.1-118.8,11.1c40.8,10.5,83.3,12.1,118.6,10.4l4-0.8c-68,15.3-115.7,42.4-115.7,42.4
				c45.7-0.7,90.6-11.8,125.7-23.7c0,0-15.9-27.6,0.9-58.7C364.6,447.2,307,447,307,447z M530.4,568.6c0,0-27.6,15.9-58.7-0.9
				c-22.5,68.7-22.7,126.3-22.7,126.3c20.6-36.7,33-77.1,40.6-111.6l1.2-0.1c-2.3,67.7,11.1,118.8,11.1,118.8
				c10.5-40.8,12.1-83.3,10.4-118.6l-0.8-4c15.3,68,42.4,115.7,42.4,115.7C553.4,648.6,542.3,603.7,530.4,568.6z"/>
		</g>
	</g>
	<g id="Ellipse_1_copy_3">
		<g id="XMLID_92_">
			<path id="XMLID_94_" class="st3" d="M499.5,11C229.7,11,11,229.7,11,499.5s218.7,488.5,488.5,488.5s488.5-218.7,488.5-488.5
				S769.2,11,499.5,11z M500,864c-201,0-364-163-364-364s163-364,364-364s364,163,364,364S701,864,500,864z M500.5,419.6
				c-44.7,0-80.9,36.2-80.9,80.9s36.2,80.9,80.9,80.9s80.9-36.2,80.9-80.9S545.2,419.6,500.5,419.6z"/>
		</g>
	</g>
	<g id="Ellipse_1_copy_4">
		<g id="XMLID_146_">
			<path id="XMLID_147_" class="st2" d="M500,0.5C224.1,0.5,0.5,224.1,0.5,500S224.1,999.5,500,999.5S999.5,775.9,999.5,500
				S775.9,0.5,500,0.5z M500.5,977.4c-263.4,0-476.9-213.5-476.9-476.9S237.1,23.6,500.5,23.6s476.9,213.5,476.9,476.9
				S763.9,977.4,500.5,977.4z M500,125.5c-206.8,0-374.5,167.7-374.5,374.5S293.2,874.5,500,874.5S874.5,706.8,874.5,500
				S706.8,125.5,500,125.5z M500.5,853.5c-194.9,0-353-158-353-353s158-353,353-353s353,158,353,353S695.5,853.5,500.5,853.5z
				 M500,410.2c-49.6,0-89.8,40.2-89.8,89.8c0,49.6,40.2,89.8,89.8,89.8s89.8-40.2,89.8-89.8C589.8,450.4,549.6,410.2,500,410.2z
				 M500.5,571.9c-39.4,0-71.4-32-71.4-71.4c0-39.4,32-71.4,71.4-71.4s71.4,32,71.4,71.4C571.9,540,540,571.9,500.5,571.9z"/>
		</g>
	</g>
</g>
</svg>
